<svg width="202" height="187" viewBox="0 0 202 187" fill="none" xmlns="http://www.w3.org/2000/svg">
<g filter="url(#filter0_d_139_1117)">
<path d="M114.004 44.8127C109.359 50.0038 101.963 59.5285 112.666 65.3257C123.368 71.1229 120.164 69.5154 129.165 71.1229C147.449 60.4204 142.989 42.583 114.004 44.8127Z" fill="url(#paint0_radial_139_1117)"/>
<path d="M75.6531 65.3257C81.4786 60.9565 76.9339 51.8586 71.2797 44.8127C43.0997 42.583 33.7351 52.8395 48.005 71.8656C57.5137 71.631 69.7139 69.7801 75.6531 65.3257Z" fill="url(#paint1_radial_139_1117)"/>
<path fill-rule="evenodd" clip-rule="evenodd" d="M19.0192 23.8537C48.451 -9.59152 55.2059 6.90806 89.097 14.9349C134.137 4.67838 142.751 -12.546 175.543 19.3943C203.687 46.8071 199.476 58.3422 188.693 72.9066C186.32 76.1116 183.629 79.4633 180.894 83.1632C179.884 84.5298 178.732 85.709 177.464 86.7306C174.742 88.9241 171.487 90.3908 167.962 91.4241C162.487 93.0289 156.362 93.5885 150.57 94.203C141.913 95.1216 135.715 94.8247 131.841 99.6628C129.946 102.03 127.406 110.21 127.828 114.825C128.019 116.915 128.384 117.496 129.165 120.176C135.408 141.581 148.787 127.757 170.192 146.486C187.315 161.469 145.219 186.174 107.76 175.026C116.382 170.418 148.697 173.242 142.989 157.188C135.854 137.121 97.6233 157.947 95.2742 131.324C93.5724 112.037 86.4583 105.739 75.6531 103.25C69.4704 101.826 62.0793 101.65 53.8022 101.001C51.7287 100.838 49.8034 100.579 48.005 100.237C36.459 98.0406 30.1433 92.4087 23.398 86.7306C21.9752 85.533 20.5333 84.3332 19.0192 83.1632C17.9189 81.8184 15.2097 79.2669 12.463 75.5822C7.92609 69.496 3.28688 60.3182 5.627 48.3802C6.46231 44.1188 8.1869 39.5058 11.1228 34.5561C13.1451 31.1468 15.7422 27.5777 19.0192 23.8537ZM25.2623 55.5151C24.965 46.5964 29.0082 30.0968 36.8567 30.0968C46.6672 30.0968 53.8022 30.0968 62.7209 36.3399C64.9625 37.909 68.2775 41.0716 71.2797 44.8127C76.9339 51.8586 81.4786 60.9565 75.6531 65.3257C69.7139 69.7801 57.5137 71.631 48.005 71.8656C43.2347 71.9833 39.1419 71.6942 36.8567 71.1229C31.5054 69.7851 25.4704 61.7582 25.2623 55.5151ZM112.666 65.3257C101.963 59.5285 109.359 50.0038 114.004 44.8127C121.584 36.3399 132.82 23.8537 142.989 23.8537C159.043 23.8537 168.934 26.3236 172.867 38.1236C177.326 51.5017 173.313 63.096 159.489 68.0013C149.403 71.5803 141.652 73.3526 129.165 71.1229C120.164 69.5154 123.368 71.1229 112.666 65.3257Z" fill="url(#paint2_radial_139_1117)"/>
<path d="M142.989 23.8537C132.82 23.8537 121.584 36.3399 114.004 44.8127C142.989 42.583 147.449 60.4204 129.165 71.1229C141.652 73.3526 149.403 71.5803 159.489 68.0013C173.313 63.096 177.326 51.5017 172.867 38.1236C168.934 26.3236 159.043 23.8537 142.989 23.8537Z" fill="white"/>
<path d="M36.8567 30.0968C29.0082 30.0968 24.965 46.5964 25.2623 55.5151C25.4704 61.7582 31.5054 69.7851 36.8567 71.1229C39.1419 71.6942 43.2347 71.9833 48.005 71.8656C33.7351 52.8395 43.0997 42.583 71.2797 44.8127C68.2775 41.0716 64.9625 37.909 62.7209 36.3399C53.8022 30.0968 46.6672 30.0968 36.8567 30.0968Z" fill="white"/>
<path d="M114.004 44.8127C109.359 50.0038 101.963 59.5285 112.666 65.3257C123.368 71.1229 120.164 69.5154 129.165 71.1229M114.004 44.8127C121.584 36.3399 132.82 23.8537 142.989 23.8537C159.043 23.8537 168.934 26.3236 172.867 38.1236C177.326 51.5017 173.313 63.096 159.489 68.0013C149.403 71.5803 141.652 73.3526 129.165 71.1229M114.004 44.8127C142.989 42.583 147.449 60.4204 129.165 71.1229M71.2797 44.8127C68.2775 41.0716 64.9625 37.909 62.7209 36.3399C53.8022 30.0968 46.6672 30.0968 36.8567 30.0968C29.0082 30.0968 24.965 46.5964 25.2623 55.5151C25.4704 61.7582 31.5054 69.7851 36.8567 71.1229C39.1419 71.6942 43.2347 71.9833 48.005 71.8656M71.2797 44.8127C76.9339 51.8586 81.4786 60.9565 75.6531 65.3257C69.7139 69.7801 57.5137 71.631 48.005 71.8656M71.2797 44.8127C43.0997 42.583 33.7351 52.8395 48.005 71.8656M19.0192 83.1632C17.9189 81.8184 15.2097 79.2669 12.463 75.5822C7.92609 69.496 3.28688 60.3183 5.627 48.3802C6.46231 44.1188 8.1869 39.5058 11.1228 34.5561C13.1451 31.1468 15.7422 27.5777 19.0192 23.8537C48.451 -9.59152 55.2059 6.90806 89.097 14.9349C134.137 4.67838 142.751 -12.546 175.543 19.3943C203.687 46.8071 199.476 58.3422 188.693 72.9066C186.32 76.1116 183.629 79.4633 180.894 83.1632C179.884 84.5298 178.732 85.709 177.464 86.7306C174.742 88.9242 171.487 90.3908 167.962 91.4241C162.487 93.0289 156.362 93.5885 150.57 94.203C141.913 95.1215 135.715 94.8247 131.841 99.6628C129.946 102.03 127.406 110.21 127.828 114.825C128.019 116.915 128.384 117.496 129.165 120.176C135.408 141.581 148.787 127.757 170.192 146.486C187.315 161.469 145.219 186.174 107.76 175.026C116.382 170.418 148.697 173.242 142.989 157.188C135.854 137.121 97.6233 157.947 95.2742 131.324C93.5724 112.037 86.4583 105.739 75.6531 103.25C69.4704 101.826 62.0793 101.65 53.8022 101.001C51.7287 100.838 49.8034 100.579 48.005 100.237C36.459 98.0406 30.1433 92.4087 23.398 86.7306C21.9752 85.5329 20.5333 84.3332 19.0192 83.1632Z" stroke="#201D26" stroke-width="0.891871"/>
</g>
<defs>
<filter id="filter0_d_139_1117" x="0.553833" y="0.554077" width="200.805" height="185.721" filterUnits="userSpaceOnUse" color-interpolation-filters="sRGB">
<feFlood flood-opacity="0" result="BackgroundImageFix"/>
<feColorMatrix in="SourceAlpha" type="matrix" values="0 0 0 0 0 0 0 0 0 0 0 0 0 0 0 0 0 0 127 0" result="hardAlpha"/>
<feOffset dy="4"/>
<feGaussianBlur stdDeviation="2"/>
<feComposite in2="hardAlpha" operator="out"/>
<feColorMatrix type="matrix" values="0 0 0 0 0 0 0 0 0 0 0 0 0 0 0 0 0 0 0.25 0"/>
<feBlend mode="normal" in2="BackgroundImageFix" result="effect1_dropShadow_139_1117"/>
<feBlend mode="normal" in="SourceGraphic" in2="effect1_dropShadow_139_1117" result="shape"/>
</filter>
<radialGradient id="paint0_radial_139_1117" cx="0" cy="0" r="1" gradientUnits="userSpaceOnUse" gradientTransform="translate(87.7592 72.9065) rotate(-16.1328) scale(56.1702 60.9616)">
<stop stop-color="#A3B3EB"/>
<stop offset="1" stop-color="#5267B2"/>
</radialGradient>
<radialGradient id="paint1_radial_139_1117" cx="0" cy="0" r="1" gradientUnits="userSpaceOnUse" gradientTransform="translate(87.7592 72.9065) rotate(-16.1328) scale(56.1702 60.9616)">
<stop stop-color="#A3B3EB"/>
<stop offset="1" stop-color="#5267B2"/>
</radialGradient>
<radialGradient id="paint2_radial_139_1117" cx="0" cy="0" r="1" gradientUnits="userSpaceOnUse" gradientTransform="translate(91.3267 56.4069) rotate(85.4655) scale(121.803 132.194)">
<stop stop-color="#F4F4F4"/>
<stop offset="1" stop-color="#8E8E8E"/>
</radialGradient>
</defs>
</svg>
