<svg width="160" height="149" viewBox="0 0 160 149" fill="none" xmlns="http://www.w3.org/2000/svg">
<g filter="url(#filter0_d_187_1258)">
<path d="M90.1976 35.4411C86.5673 39.5219 80.7869 47.0093 89.152 51.5664C97.5171 56.1236 95.0124 54.8599 102.048 56.1236C116.339 47.7104 112.853 33.6884 90.1976 35.4411Z" fill="url(#paint0_radial_187_1258)"/>
<path d="M60.2228 51.5664C64.776 48.1318 61.2239 40.9799 56.8045 35.4411C34.7789 33.6884 27.4595 41.751 38.6129 56.7074C46.045 56.523 55.5807 55.068 60.2228 51.5664Z" fill="url(#paint1_radial_187_1258)"/>
<path fill-rule="evenodd" clip-rule="evenodd" d="M15.9575 18.9653C38.9615 -7.32599 44.2412 5.64432 70.7306 11.9542C105.934 3.89157 112.667 -9.64848 138.297 15.4597C160.294 37.0089 157.003 46.0767 148.575 57.5258C146.72 60.0452 144.617 62.68 142.479 65.5885C141.69 66.6627 140.789 67.5898 139.799 68.3928C137.671 70.1171 135.127 71.27 132.372 72.0823C128.093 73.3439 123.305 73.7838 118.778 74.2668C112.011 74.9889 107.168 74.7556 104.139 78.5588C102.658 80.4193 100.673 86.8501 101.003 90.4774C101.152 92.1206 101.437 92.5775 102.048 94.684C106.928 111.51 117.384 100.643 134.114 115.366C147.499 127.145 114.596 146.565 85.318 137.802C92.0566 134.179 117.314 136.399 112.853 123.78C107.276 108.005 77.3948 124.376 75.5587 103.448C74.2286 88.2859 68.6681 83.3351 60.2228 81.3789C55.3904 80.2596 49.6134 80.1207 43.144 79.6104C41.5233 79.4826 40.0185 79.2792 38.6129 79.0102C29.5885 77.2836 24.6521 72.8564 19.38 68.3928C18.2679 67.4513 17.1409 66.5082 15.9575 65.5885C15.0975 64.5313 12.9799 62.5255 10.8331 59.629C7.28705 54.8447 3.66102 47.6301 5.49007 38.2455C6.14295 34.8957 7.4909 31.2694 9.78563 27.3785C11.3663 24.6984 13.3961 21.8927 15.9575 18.9653ZM20.8371 43.8543C20.6048 36.8433 23.7649 23.873 29.8993 23.873C37.5673 23.873 43.144 23.873 50.1149 28.7807C51.8669 30.0141 54.4579 32.5002 56.8045 35.4411C61.2239 40.9799 64.776 48.1318 60.2228 51.5664C55.5807 55.068 46.045 56.523 38.6129 56.7074C34.8844 56.7999 31.6854 56.5727 29.8993 56.1236C25.7168 55.0719 20.9998 48.762 20.8371 43.8543ZM89.152 51.5664C80.7869 47.0093 86.5673 39.5219 90.1976 35.4411C96.1229 28.7807 104.905 18.9653 112.853 18.9653C125.401 18.9653 133.131 20.9069 136.206 30.1829C139.691 40.6994 136.554 49.8137 125.749 53.6697C117.866 56.4832 111.807 57.8763 102.048 56.1236C95.0124 54.8599 97.5171 56.1236 89.152 51.5664Z" fill="url(#paint2_radial_187_1258)"/>
<path d="M29.8993 23.873C23.7649 23.873 20.6048 36.8433 20.8371 43.8543C20.9998 48.762 25.7168 55.0719 29.8993 56.1236C31.6854 56.5727 34.8844 56.7999 38.6129 56.7074C27.4595 41.751 34.7789 33.6884 56.8045 35.4411C54.4579 32.5002 51.8669 30.0141 50.1149 28.7807C43.144 23.873 37.5673 23.873 29.8993 23.873Z" fill="white"/>
<path d="M112.853 18.9653C104.905 18.9653 96.1229 28.7807 90.1976 35.4411C112.853 33.6884 116.339 47.7104 102.048 56.1236C111.807 57.8763 117.866 56.4832 125.749 53.6697C136.554 49.8137 139.691 40.6994 136.206 30.1829C133.131 20.9069 125.401 18.9653 112.853 18.9653Z" fill="white"/>
<path d="M90.1976 35.4411C86.5673 39.5219 80.7869 47.0093 89.152 51.5664C97.5171 56.1236 95.0124 54.8599 102.048 56.1236M90.1976 35.4411C96.1229 28.7807 104.905 18.9653 112.853 18.9653C125.401 18.9653 133.131 20.9069 136.206 30.1829C139.691 40.6994 136.554 49.8137 125.749 53.6697C117.866 56.4832 111.807 57.8763 102.048 56.1236M90.1976 35.4411C112.853 33.6884 116.339 47.7104 102.048 56.1236M56.8045 35.4411C54.4579 32.5002 51.8669 30.0141 50.1149 28.7807C43.144 23.873 37.5673 23.873 29.8993 23.873C23.7649 23.873 20.6048 36.8433 20.8371 43.8543C20.9998 48.762 25.7168 55.0719 29.8993 56.1236C31.6854 56.5727 34.8844 56.7999 38.6129 56.7074M56.8045 35.4411C61.2239 40.9799 64.776 48.1318 60.2228 51.5664C55.5807 55.068 46.045 56.523 38.6129 56.7074M56.8045 35.4411C34.7789 33.6884 27.4595 41.751 38.6129 56.7074M15.9575 65.5885C15.0975 64.5313 12.9799 62.5255 10.8331 59.629C7.28705 54.8447 3.66102 47.6301 5.49007 38.2455C6.14295 34.8957 7.4909 31.2694 9.78563 27.3785C11.3663 24.6984 13.3961 21.8927 15.9575 18.9653C38.9615 -7.32599 44.2412 5.64432 70.7306 11.9542C105.934 3.89157 112.667 -9.64848 138.297 15.4597C160.294 37.0089 157.003 46.0767 148.575 57.5258C146.72 60.0452 144.617 62.68 142.479 65.5885C141.69 66.6627 140.789 67.5898 139.799 68.3928C137.671 70.1171 135.127 71.27 132.372 72.0823C128.093 73.3439 123.305 73.7838 118.778 74.2668C112.011 74.9889 107.168 74.7556 104.139 78.5588C102.658 80.4193 100.673 86.8501 101.003 90.4774C101.152 92.1206 101.437 92.5775 102.048 94.684C106.928 111.51 117.384 100.643 134.114 115.366C147.499 127.145 114.596 146.565 85.318 137.802C92.0566 134.179 117.314 136.399 112.853 123.78C107.276 108.005 77.3948 124.376 75.5587 103.448C74.2286 88.2859 68.6681 83.3351 60.2228 81.3789C55.3904 80.2596 49.6134 80.1207 43.144 79.6104C41.5233 79.4826 40.0185 79.2792 38.6129 79.0102C29.5885 77.2836 24.6521 72.8564 19.38 68.3928C18.2679 67.4513 17.1409 66.5082 15.9575 65.5885Z" stroke="#201D26" stroke-width="0.891871"/>
</g>
<defs>
<filter id="filter0_d_187_1258" x="0.553955" y="0.554077" width="158.892" height="147.897" filterUnits="userSpaceOnUse" color-interpolation-filters="sRGB">
<feFlood flood-opacity="0" result="BackgroundImageFix"/>
<feColorMatrix in="SourceAlpha" type="matrix" values="0 0 0 0 0 0 0 0 0 0 0 0 0 0 0 0 0 0 127 0" result="hardAlpha"/>
<feOffset dy="4"/>
<feGaussianBlur stdDeviation="2"/>
<feComposite in2="hardAlpha" operator="out"/>
<feColorMatrix type="matrix" values="0 0 0 0 0 0 0 0 0 0 0 0 0 0 0 0 0 0 0.25 0"/>
<feBlend mode="normal" in2="BackgroundImageFix" result="effect1_dropShadow_187_1258"/>
<feBlend mode="normal" in="SourceGraphic" in2="effect1_dropShadow_187_1258" result="shape"/>
</filter>
<radialGradient id="paint0_radial_187_1258" cx="0" cy="0" r="1" gradientUnits="userSpaceOnUse" gradientTransform="translate(69.685 57.5257) rotate(-16.2208) scale(43.9224 47.9006)">
<stop stop-color="#A3B3EB"/>
<stop offset="1" stop-color="#5267B2"/>
</radialGradient>
<radialGradient id="paint1_radial_187_1258" cx="0" cy="0" r="1" gradientUnits="userSpaceOnUse" gradientTransform="translate(69.685 57.5257) rotate(-16.2208) scale(43.9224 47.9006)">
<stop stop-color="#A3B3EB"/>
<stop offset="1" stop-color="#5267B2"/>
</radialGradient>
<radialGradient id="paint2_radial_187_1258" cx="0" cy="0" r="1" gradientUnits="userSpaceOnUse" gradientTransform="translate(72.4733 44.5553) rotate(85.4913) scale(95.7462 103.327)">
<stop stop-color="#F4F4F4"/>
<stop offset="1" stop-color="#8E8E8E"/>
</radialGradient>
</defs>
</svg>
